<svg xmlns="http://www.w3.org/2000/svg" xmlns:xlink="http://www.w3.org/1999/xlink" width="663px" height="535px" version="1.1"><defs/><g transform="translate(0.5,0.5)"><rect x="99" y="0" width="478" height="534" fill="#fff2cc" stroke="#000000" pointer-events="none"/><g fill="#000000" font-family="Helvetica" text-anchor="middle" font-size="12px"><text x="337.5" y="18.5">Broadcasting System</text></g><rect x="115" y="43" width="43" height="20" fill="#d4e1f5" stroke="none" pointer-events="none"/><rect x="115" y="63" width="215" height="166" fill="#d4e1f5" stroke="none" pointer-events="none"/><path d="M 115 63 L 330 63 L 330 229 L 115 229 L 115 43 L 158 43 L 158 63" fill="none" stroke="#000000" stroke-miterlimit="10" pointer-events="none"/><g fill="#000000" font-family="Helvetica" text-anchor="middle" font-size="12px"><text x="222" y="76.5">broadcast</text></g><ellipse cx="222" cy="119" rx="91" ry="20" fill="#f8cecc" stroke="#000000" pointer-events="none"/><g fill="#000000" font-family="Helvetica" text-anchor="middle" font-size="12px"><text x="221.5" y="122.5">Watch Archived Programs</text></g><ellipse cx="222" cy="179" rx="91" ry="20" fill="#f8cecc" stroke="#000000" pointer-events="none"/><g fill="#000000" font-family="Helvetica" text-anchor="middle" font-size="12px"><text x="221.5" y="182.5">Watch Live Programs</text></g><rect x="115" y="250" width="43" height="20" fill="#d4e1f5" stroke="none" pointer-events="none"/><rect x="115" y="270" width="215" height="107" fill="#d4e1f5" stroke="none" pointer-events="none"/><path d="M 115 270 L 330 270 L 330 377 L 115 377 L 115 250 L 158 250 L 158 270" fill="none" stroke="#000000" stroke-miterlimit="10" pointer-events="none"/><g fill="#000000" font-family="Helvetica" text-anchor="middle" font-size="12px"><text x="222" y="283.5">discussion</text></g><ellipse cx="222" cy="326" rx="91" ry="20" fill="#f8cecc" stroke="#000000" pointer-events="none"/><g fill="#000000" font-family="Helvetica" text-anchor="middle" font-size="12px"><text x="221.5" y="329.5">Join Program Discussion</text></g><rect x="346" y="43" width="43" height="20" fill="#d4e1f5" stroke="none" pointer-events="none"/><rect x="346" y="63" width="215" height="314" fill="#d4e1f5" stroke="none" pointer-events="none"/><path d="M 346 63 L 561 63 L 561 377 L 346 377 L 346 43 L 389 43 L 389 63" fill="none" stroke="#000000" stroke-miterlimit="10" pointer-events="none"/><g fill="#000000" font-family="Helvetica" text-anchor="middle" font-size="12px"><text x="453" y="76.5">maintenance</text></g><ellipse cx="453" cy="119" rx="91" ry="20" fill="#f8cecc" stroke="#000000" pointer-events="none"/><g fill="#000000" font-family="Helvetica" text-anchor="middle" font-size="12px"><text x="452.5" y="122.5">Upload TV Programs</text></g><ellipse cx="453" cy="223" rx="91" ry="20" fill="#f8cecc" stroke="#000000" pointer-events="none"/><g fill="#000000" font-family="Helvetica" text-anchor="middle" font-size="12px"><text x="452.5" y="226">Archive TV Programs</text></g><ellipse cx="454" cy="326" rx="91" ry="20" fill="#f8cecc" stroke="#000000" pointer-events="none"/><g fill="#000000" font-family="Helvetica" text-anchor="middle" font-size="12px"><text x="453.5" y="329.5">Update Timetable</text></g><rect x="115" y="393" width="89.2" height="20" fill="#d4e1f5" stroke="none" pointer-events="none"/><rect x="115" y="413" width="446" height="106" fill="#d4e1f5" stroke="none" pointer-events="none"/><path d="M 115 413 L 561 413 L 561 519 L 115 519 L 115 393 L 204.2 393 L 204.2 413" fill="none" stroke="#000000" stroke-miterlimit="10" pointer-events="none"/><g fill="#000000" font-family="Helvetica" text-anchor="middle" font-size="12px"><text x="337.5" y="426.5">broadcast</text></g><ellipse cx="222" cy="469" rx="91" ry="20" fill="#f8cecc" stroke="#000000" pointer-events="none"/><g fill="#000000" font-family="Helvetica" text-anchor="middle" font-size="12px"><text x="221.5" y="472.5">Subscribe to Newsletter</text></g><ellipse cx="453" cy="469" rx="91" ry="20" fill="#f8cecc" stroke="#000000" pointer-events="none"/><g fill="#000000" font-family="Helvetica" text-anchor="middle" font-size="12px"><text x="452.5" y="472.5">Deliver Newsletter</text></g><ellipse cx="47" cy="234" rx="7.5" ry="7.5" fill="#d5e8d4" stroke="none" pointer-events="none"/><rect x="32" y="226" width="30" height="60" fill-opacity="0" fill="#d5e8d4" stroke="none" pointer-events="none"/><ellipse cx="47" cy="234" rx="7.5" ry="7.5" fill="none" stroke="#000000" pointer-events="none"/><path d="M 47 241 L 47 266" fill="none" stroke="#000000" stroke-miterlimit="10" pointer-events="none"/><path d="M 32 250 L 62 250" fill="none" stroke="#000000" stroke-miterlimit="10" pointer-events="none"/><path d="M 47 266 L 32 286" fill="none" stroke="#000000" stroke-miterlimit="10" pointer-events="none"/><path d="M 47 266 L 62 286" fill="none" stroke="#000000" stroke-miterlimit="10" pointer-events="none"/><g fill="#000000" font-family="Helvetica" text-anchor="middle" font-size="12px"><text x="46.5" y="304.5">Member</text></g><ellipse cx="47" cy="371" rx="7.5" ry="7.5" fill="#d5e8d4" stroke="none" pointer-events="none"/><rect x="32" y="363" width="30" height="60" fill-opacity="0" fill="#d5e8d4" stroke="none" pointer-events="none"/><ellipse cx="47" cy="371" rx="7.5" ry="7.5" fill="none" stroke="#000000" pointer-events="none"/><path d="M 47 378 L 47 403" fill="none" stroke="#000000" stroke-miterlimit="10" pointer-events="none"/><path d="M 32 387 L 62 387" fill="none" stroke="#000000" stroke-miterlimit="10" pointer-events="none"/><path d="M 47 403 L 32 423" fill="none" stroke="#000000" stroke-miterlimit="10" pointer-events="none"/><path d="M 47 403 L 62 423" fill="none" stroke="#000000" stroke-miterlimit="10" pointer-events="none"/><g fill="#000000" font-family="Helvetica" text-anchor="middle" font-size="12px"><text x="46.5" y="441.5">Premium Member</text></g><ellipse cx="47" cy="97" rx="7.5" ry="7.5" fill="#d5e8d4" stroke="none" pointer-events="none"/><rect x="32" y="89" width="30" height="60" fill-opacity="0" fill="#d5e8d4" stroke="none" pointer-events="none"/><ellipse cx="47" cy="97" rx="7.5" ry="7.5" fill="none" stroke="#000000" pointer-events="none"/><path d="M 47 104 L 47 129" fill="none" stroke="#000000" stroke-miterlimit="10" pointer-events="none"/><path d="M 32 113 L 62 113" fill="none" stroke="#000000" stroke-miterlimit="10" pointer-events="none"/><path d="M 47 129 L 32 149" fill="none" stroke="#000000" stroke-miterlimit="10" pointer-events="none"/><path d="M 47 129 L 62 149" fill="none" stroke="#000000" stroke-miterlimit="10" pointer-events="none"/><g fill="#000000" font-family="Helvetica" text-anchor="middle" font-size="12px"><text x="46.5" y="167.5">General Member</text></g><ellipse cx="625" cy="201" rx="7.5" ry="7.5" fill="#d5e8d4" stroke="none" pointer-events="none"/><rect x="610" y="193" width="30" height="60" fill-opacity="0" fill="#d5e8d4" stroke="none" pointer-events="none"/><ellipse cx="625" cy="201" rx="7.5" ry="7.5" fill="none" stroke="#000000" pointer-events="none"/><path d="M 625 208 L 625 233" fill="none" stroke="#000000" stroke-miterlimit="10" pointer-events="none"/><path d="M 610 217 L 640 217" fill="none" stroke="#000000" stroke-miterlimit="10" pointer-events="none"/><path d="M 625 233 L 610 253" fill="none" stroke="#000000" stroke-miterlimit="10" pointer-events="none"/><path d="M 625 233 L 640 253" fill="none" stroke="#000000" stroke-miterlimit="10" pointer-events="none"/><g fill="#000000" font-family="Helvetica" text-anchor="middle" font-size="12px"><text x="624.5" y="271.5">Administrator</text></g><path d="M 610 223 L 587 223 Q 577 223 567 223 L 544 223" fill="none" stroke="#000000" stroke-miterlimit="10" pointer-events="none"/><path d="M 625 193 L 625 129 Q 625 119 615 119 L 544 119" fill="none" stroke="#000000" stroke-miterlimit="10" pointer-events="none"/><path d="M 625 253 L 625 316 Q 625 326 615 326 L 545 326" fill="none" stroke="#000000" stroke-miterlimit="10" pointer-events="none"/><path d="M 625 253 L 625 459 Q 625 469 615 469 L 544 469" fill="none" stroke="#000000" stroke-miterlimit="10" pointer-events="none"/><path d="M 62 119 L 131 119" fill="none" stroke="#000000" stroke-miterlimit="10" pointer-events="none"/><path d="M 62 256 L 72 256 Q 82 256 82 246 L 82 189 Q 82 179 92 179 L 131 179" fill="none" stroke="#000000" stroke-miterlimit="10" pointer-events="none"/><path d="M 62 393 L 72 393 Q 82 393 82 383 L 82 336 Q 82 326 92 326 L 131 326" fill="none" stroke="#000000" stroke-miterlimit="10" pointer-events="none"/><path d="M 62 393 L 72 393 Q 82 393 82 403 L 82 459 Q 82 469 92 469 L 131 469" fill="none" stroke="#000000" stroke-miterlimit="10" pointer-events="none"/><path d="M 47 212.88 L 47 149" fill="none" stroke="#000000" stroke-miterlimit="10" pointer-events="none"/><path d="M 47 224.88 L 41 212.88 L 53 212.88 Z" fill="none" stroke="#000000" stroke-miterlimit="10" pointer-events="none"/><path d="M 47 299.12 L 47 363" fill="none" stroke="#000000" stroke-miterlimit="10" pointer-events="none"/><path d="M 47 287.12 L 53 299.12 L 41 299.12 Z" fill="none" stroke="#000000" stroke-miterlimit="10" pointer-events="none"/><path d="M 62 119 L 131 119" fill="none" stroke="#000000" stroke-miterlimit="10" pointer-events="none"/><path d="M 62 256 L 72 256 Q 82 256 82 246 L 82 189 Q 82 179 92 179 L 131 179" fill="none" stroke="#000000" stroke-miterlimit="10" pointer-events="none"/><path d="M 62 393 L 72 393 Q 82 393 82 383 L 82 336 Q 82 326 92 326 L 131 326" fill="none" stroke="#000000" stroke-miterlimit="10" pointer-events="none"/><path d="M 625 193 L 625 129 Q 625 119 615 119 L 544 119" fill="none" stroke="#000000" stroke-miterlimit="10" pointer-events="none"/><path d="M 610 223 L 587 223 Q 577 223 567 223 L 544 223" fill="none" stroke="#000000" stroke-miterlimit="10" pointer-events="none"/><path d="M 625 253 L 625 316 Q 625 326 615 326 L 545 326" fill="none" stroke="#000000" stroke-miterlimit="10" pointer-events="none"/><path d="M 62 393 L 72 393 Q 82 393 82 403 L 82 459 Q 82 469 92 469 L 131 469" fill="none" stroke="#000000" stroke-miterlimit="10" pointer-events="none"/><path d="M 625 253 L 625 459 Q 625 469 615 469 L 544 469" fill="none" stroke="#000000" stroke-miterlimit="10" pointer-events="none"/><path d="M 62 256 L 72 256 Q 82 256 82 246 L 82 189 Q 82 179 92 179 L 131 179" fill="none" stroke="#000000" stroke-miterlimit="10" pointer-events="none"/><path d="M 47 212.88 L 47 149" fill="none" stroke="#000000" stroke-miterlimit="10" pointer-events="none"/><path d="M 47 224.88 L 41 212.88 L 53 212.88 Z" fill="none" stroke="#000000" stroke-miterlimit="10" pointer-events="none"/><path d="M 47 299.12 L 47 363" fill="none" stroke="#000000" stroke-miterlimit="10" pointer-events="none"/><path d="M 47 287.12 L 53 299.12 L 41 299.12 Z" fill="none" stroke="#000000" stroke-miterlimit="10" pointer-events="none"/><path d="M 62 393 L 72 393 Q 82 393 82 383 L 82 336 Q 82 326 92 326 L 131 326" fill="none" stroke="#000000" stroke-miterlimit="10" pointer-events="none"/><path d="M 62 393 L 72 393 Q 82 393 82 403 L 82 459 Q 82 469 92 469 L 131 469" fill="none" stroke="#000000" stroke-miterlimit="10" pointer-events="none"/><path d="M 47 299.12 L 47 363" fill="none" stroke="#000000" stroke-miterlimit="10" pointer-events="none"/><path d="M 47 287.12 L 53 299.12 L 41 299.12 Z" fill="none" stroke="#000000" stroke-miterlimit="10" pointer-events="none"/><path d="M 62 119 L 131 119" fill="none" stroke="#000000" stroke-miterlimit="10" pointer-events="none"/><path d="M 47 212.88 L 47 149" fill="none" stroke="#000000" stroke-miterlimit="10" pointer-events="none"/><path d="M 47 224.88 L 41 212.88 L 53 212.88 Z" fill="none" stroke="#000000" stroke-miterlimit="10" pointer-events="none"/><path d="M 610 223 L 587 223 Q 577 223 567 223 L 544 223" fill="none" stroke="#000000" stroke-miterlimit="10" pointer-events="none"/><path d="M 625 193 L 625 129 Q 625 119 615 119 L 544 119" fill="none" stroke="#000000" stroke-miterlimit="10" pointer-events="none"/><path d="M 625 253 L 625 316 Q 625 326 615 326 L 545 326" fill="none" stroke="#000000" stroke-miterlimit="10" pointer-events="none"/><path d="M 625 253 L 625 459 Q 625 469 615 469 L 544 469" fill="none" stroke="#000000" stroke-miterlimit="10" pointer-events="none"/></g></svg>